<svg xmlns="http://www.w3.org/2000/svg" xmlns:xlink="http://www.w3.org/1999/xlink" version="1.1" width="1000" height="1000" viewBox="0 0 1000 1000" xml:space="preserve">
<defs>
</defs>
<rect x="0" y="0" width="100%" height="100%" fill="rgba(255,255,255,0)"/>
<g transform="matrix(0.625 0 0 -0.625 500 500)" id="448347">
<g style="" vector-effect="non-scaling-stroke">
		<g transform="matrix(1.3333 0 0 1.3333 542.3632 239.2576)">
<path style="stroke: none; stroke-width: 1; stroke-dasharray: none; stroke-linecap: butt; stroke-dashoffset: 0; stroke-linejoin: miter; stroke-miterlimit: 4; is-custom-font: none; font-file-url: none; fill: rgb(0,0,0); fill-rule: nonzero; opacity: 1;" transform=" translate(-1006.7727, -779.4438)" d="m 993.55 802 c 0.44531 -1.1094 4 -9.5547 7.5547 -18.668 c 4.668 -7.7773 9.7773 -16.223 16.668 -26.445 c 0.66797 0.22266 1.332 0.44531 2.2227 0.89062 c -9.332 18.668 -21.555 42 -26.445 44.223" stroke-linecap="round"/>
</g>
		<g transform="matrix(1.3333 0 0 1.3333 429.3054 144.2867)" clip-path="url(#CLIPPATH_1)">
<clipPath id="CLIPPATH_1">
	<path transform="matrix(1 0 0 1 -0.2091 -0.2243) translate(-921.775, -708)" id="c" d="m 722 339 h 399.55 v 738 h -399.55 z" stroke-linecap="round"/>
</clipPath>
<path style="stroke: none; stroke-width: 1; stroke-dasharray: none; stroke-linecap: butt; stroke-dashoffset: 0; stroke-linejoin: miter; stroke-miterlimit: 4; is-custom-font: none; font-file-url: none; fill: rgb(0,0,0); fill-rule: nonzero; opacity: 1;" transform=" translate(-921.9841, -708.2243)" d="m 1114.7 519.11 c 8.2227 49.332 9.332 98.891 2.668 148.67 c -12.668 96.223 -52.445 180.89 -111.33 257.11 c -22.223 28.668 -48.223 53.777 -77.109 75.777 c -46.445 35.332 -97.555 60 -154.89 70.891 c -16.891 3.1094 -34.445 4.4453 -51.777 5.332 c 13.777 -9.5547 30.223 -10.445 45.332 -14.891 c 32.223 -9.1094 64.223 -20 93.109 -36.891 c 41.555 -24.223 80.891 -51.777 113.78 -87.777 c 63.332 -69.777 106.45 -149.55 125.11 -242.22 c 14 -69.109 12.445 -137.78 -4 -206.22 c -7.332 -31.109 -13.555 -62.445 -25.332 -92.223 c -7.5547 -18.668 -15.777 -36.668 -25.555 -54 l 6.8906 -3.1094 c 31.773 56.004 52.441 115.78 63.109 179.56" stroke-linecap="round"/>
</g>
		<g transform="matrix(1.3333 0 0 1.3333 555.5533 -135.8562)">
<path style="stroke: none; stroke-width: 1; stroke-dasharray: none; stroke-linecap: butt; stroke-dashoffset: 0; stroke-linejoin: miter; stroke-miterlimit: 4; is-custom-font: none; font-file-url: none; fill: rgb(0,0,0); fill-rule: nonzero; opacity: 1;" transform=" translate(-1016.6655, -498.11)" d="m 996.22 412.22 c 27.555 54 40.891 111.55 40.891 171.78 c -7.3359 -75.555 -14.668 -105.55 -40.891 -171.78" stroke-linecap="round"/>
</g>
		<g transform="matrix(1.3333 0 0 1.3333 520.358 271.9924)">
<path style="stroke: none; stroke-width: 1; stroke-dasharray: none; stroke-linecap: butt; stroke-dashoffset: 0; stroke-linejoin: miter; stroke-miterlimit: 4; is-custom-font: none; font-file-url: none; fill: rgb(0,0,0); fill-rule: nonzero; opacity: 1;" transform=" translate(-990.2693, -803.9955)" d="m 1019.8 757.55 h 0.22266 c -0.89062 3.5547 -10 23.109 -12 26.223 c -12.223 20.668 -30.223 46.891 -45.777 66.668 c -7.5547 -1.7773 11.777 -22.445 16.891 -31.109 c 8.668 -13.109 14.445 -23.555 21.777 -36 c -3.5547 9.1094 -6.8906 17.555 -7.5547 18.668 c 5.1094 -2.2266 17.332 -25.559 26.441 -44.449" stroke-linecap="round"/>
</g>
		<g transform="matrix(1.3333 0 0 1.3333 534.0243 38.9592)">
<path style="stroke: none; stroke-width: 1; stroke-dasharray: none; stroke-linecap: butt; stroke-dashoffset: 0; stroke-linejoin: miter; stroke-miterlimit: 4; is-custom-font: none; font-file-url: none; fill: rgb(0,0,0); fill-rule: nonzero; opacity: 1;" transform=" translate(-1000.5189, -629.2233)" d="m 1013.1 521.78 c 21.109 76 17.555 150.45 -14.223 222.89 c -5.7773 13.332 -13.332 25.777 -20 38.668 c -0.66797 1.332 -2 2.668 -4.2227 3.332 c 0.66797 -2.2227 1.332 -4.4453 2.2227 -6.668 c 16.891 -43.332 27.109 -88.223 30.891 -134.67 c 4.8906 -58.223 -0.89062 -115.33 -17.777 -171.11 l 8.668 -2.4453 c 4.8867 16.445 9.7773 33.113 14.441 50" stroke-linecap="round"/>
</g>
		<g transform="matrix(1.3333 0 0 1.3333 -16.4763 -12.5938)" clip-path="url(#CLIPPATH_2)">
<clipPath id="CLIPPATH_2">
	<path transform="matrix(1 0 0 1 0.0995 0.1876) translate(-587.755, -590.755)" id="b" d="m 81.555 79.555 h 1012.4 v 1022.4 h -1012.4 z" stroke-linecap="round"/>
</clipPath>
<path style="stroke: none; stroke-width: 1; stroke-dasharray: none; stroke-linecap: butt; stroke-dashoffset: 0; stroke-linejoin: miter; stroke-miterlimit: 4; is-custom-font: none; font-file-url: none; fill: rgb(0,0,0); fill-rule: nonzero; opacity: 1;" transform=" translate(-587.6555, -590.5674)" d="m 1086.4 514.89 c -7.1094 -46.223 -17.109 -91.777 -35.332 -135.11 c -10.445 -24.668 -24 -47.555 -38.445 -70 c -3.1094 -4.8906 -5.5547 -10.223 -8.4453 -15.555 c 0.89062 -0.66797 1.5547 -1.1094 2.4453 -1.7773 c 4 4 8.2227 7.5547 11.777 11.777 c 10 12 18.668 24.891 26.223 38.445 l 6.8906 -3.1094 c -7.332 -12.891 -15.109 -25.332 -23.555 -37.777 c -32.891 -48.223 -72.223 -90 -120.22 -123.55 c -42.445 -29.555 -88.668 -51.777 -137.78 -68.445 c -69.109 -23.555 -139.55 -35.109 -212.89 -29.109 c -60 4.8906 -115.55 21.109 -167.55 46.668 c -27.109 13.555 -53.332 29.555 -78.668 47.777 c -34.445 25.109 -67.109 52.445 -95.332 84.668 c -25.109 28.445 -48.223 58.668 -64.891 92.891 c -22.223 46 -34.445 95.332 -42.891 145.33 c -3.7773 22.668 -7.332 45.555 -11.109 68.223 c -0.44531 2.8906 -2 5.5547 -3.1094 8.4453 c -0.66797 -0.22266 -1.332 -0.44531 -2 -0.66797 c 1.1094 -14.668 1.5547 -29.332 3.332 -43.777 c 4.4453 -40.223 13.777 -79.109 26.445 -117.55 c 15.777 -48 35.109 -94 66.223 -134.45 c 3.5547 -4.4453 6.4453 -9.332 9.7773 -14 c -4 4.4453 -8 8.8906 -11.777 13.555 c -30.445 37.777 -52.891 80 -70.223 125.11 c -28.668 75.555 -38.891 152.89 -31.332 232.22 c 5.7773 60.891 20.668 119.55 45.777 175.33 c 11.109 24.668 24.668 36.223 36.223 60.668 c 11.109 23.555 23.777 43.777 39.332 64.668 c 13.555 18.223 28 29.332 42 47.332 c 10.223 12.891 16 15.332 26.445 27.777 c 2 2.4453 10.445 12.668 13.555 13.555 c 5.5547 1.332 11.777 8.8906 16.891 11.109 c 10.668 4.4453 20.891 10.223 31.332 15.555 c 19.109 9.7773 33.555 20.445 52.668 30 c 2.2227 1.1094 11.777 3.332 15.109 4.2227 c -1.7773 -3.5547 -4.8906 -1.332 -6.8906 -5.5547 c 9.1094 2.668 16 4.4453 25.555 7.5547 c 12.445 4 35.777 10.891 48.445 14.445 c 4 1.1094 1.7773 -2 6 -2 c 0.22266 -0.44531 6.8906 1.1094 7.1094 0.66797 c -2.4453 -2 4.2227 -2 1.332 -4.4453 c 1.5547 -0.89062 2.4453 -1.332 3.5547 -2 c 12.445 -8.8906 25.332 -10.891 37.555 -20.223 c 4.2227 -3.1094 8 -7.7773 6.4453 -14.223 c -2.2227 -8.8906 -3.7773 -18.223 -7.1094 -26.891 c -2.8906 -7.1094 -6.668 -14.891 -12.445 -19.555 c -12.891 -10.223 -14.223 -23.109 -27.777 -32.445 c -9.5547 -6.4453 -39.332 -17.332 -48.223 -24.668 c -12 -10.445 -36.668 -10.668 -48 -21.777 c -13.777 -13.555 -35.109 -26.223 -47.332 -41.109 c -89.555 -78.223 -110.67 -158.45 -123.78 -219.33 c -2 -8.4453 -1.332 -37.109 -3.332 -46.668 c -1.5547 2.4453 -2.4453 3.7773 -4 6 c -0.66797 -3.332 -1.1094 -5.332 -1.332 -7.5547 c -5.332 -61.109 1.1094 -120.89 22.223 -178.67 c 7.332 -20.223 16 -39.332 26.223 -57.332 c 37.332 -67.332 92.668 -119.11 161.78 -158.89 c 24.891 -14.445 50.891 -25.109 77.555 -32.668 c 39.332 -11.109 80.223 -14.891 122.45 -13.109 c 56 2.4453 108.89 18 159.55 40.891 c 37.109 16.668 72.223 37.109 101.33 65.777 c 16 15.777 30 33.777 43.777 51.555 c 28.445 36.891 49.332 78 63.777 122.22 c 0.89062 2.8906 1.7773 5.7773 2.668 8.668 l 8.668 -2.4453 c -2.2227 -7.5547 -4.2227 -15.109 -6.4453 -22.445 c -0.89062 -3.1094 -0.66797 -6.668 -1.1094 -10.891 c 3.7773 1.332 5.7773 2.2227 8.4453 3.1094 c 3.332 -10.668 -2.668 -19.555 -3.332 -29.109 c 27.555 54 40.891 111.55 40.891 171.78 c 0 37.109 -2.8906 74.223 -6.668 111.11 c -2.2227 20.668 -15.555 43.109 -20.223 63.332 c -0.22266 1.5547 -4.8906 13.555 -9.332 24.445 c 4.668 -7.7773 9.7773 -16.223 16.668 -26.445 c 0.66797 0.22266 1.332 0.44531 2.2227 0.89063 c 5.5547 -11.555 9.7773 -21.332 10.445 -23.777 c 7.1094 -24.891 12.668 -36.668 14.445 -62.668 c 1.332 -19.332 2.8906 -38.445 3.1094 -57.555 c 0.22266 -26.891 -1.332 -42.668 -3.1094 -69.555 c -1.332 -17.777 -7.5547 -46.668 -11.332 -64 c -11.555 -49.777 -35.109 -94.223 -61.777 -137.33 c -4.4453 -7.1094 -8.4453 -14.445 -13.109 -22.668 c 28.223 4.668 96 129.33 98.223 177.78 c -5.7773 -14 -11.332 -27.555 -16.891 -41.332 c -0.89062 0.22266 -1.5547 0.66797 -2.4453 0.89063 c 22.445 70.445 25.109 142.89 23.109 216 c 1.332 -10.223 2.8906 -20.223 4.2227 -30.445 c 0.89062 8.4453 1.332 16.668 0 24.891 c -2.668 16 -4.668 32.445 -10.668 47.109 c -3.7773 9.1094 -6.668 18.445 -10.445 27.555 c -9.332 22.668 -18 45.777 -28.668 67.555 c -10 20.223 -21.332 40 -34 58.891 c -10 15.109 -23.777 27.777 -34 42.668 c -11.109 16 -24.891 28.445 -40 39.777 c -16 12 -32 24.223 -46.223 38.223 c -10 10 -21.109 17.777 -34 26 c 2 1.7773 3.7773 4.668 5.1094 4.4453 c 6.668 -1.332 13.777 1.1094 20 -3.332 c 10 -7.1094 22 -11.777 30.668 -20.223 c 9.5547 -9.1094 19.109 -18 30.445 -24.223 c 24 -12.891 42.668 -31.777 58.668 -53.109 c 19.332 -25.777 36.668 -53.109 55.332 -79.555 c 35.777 -50.445 54.445 -106.89 62.445 -167.55 c 6.6602 -52.012 4.6602 -104.46 -3.3398 -156.9 z m -122 -154.22 c 4.668 7.7773 13.555 13.332 13.555 24 c -0.66797 0.44531 -1.332 0.66797 -2 1.1094 c -4.4453 -8 -8.8906 -16 -13.332 -24 c 0.66406 -0.22266 1.332 -0.66797 1.7773 -1.1094 z m -14.668 -20.668 c -4.2227 -4.4453 -8.668 -9.1094 -12.891 -13.555 c -47.996 -52 -104 -93.113 -170 -119.78 c -16.668 -6.668 -34.668 -9.7773 -52 -15.109 c -8.668 -2.668 -16.891 -6.668 -25.332 -10 c 0.44531 -0.89062 0.89062 -2 1.1094 -2.8906 c 17.777 4.8906 35.777 9.5547 53.332 14.891 c 33.555 9.7773 66.445 22 96.891 39.332 c 32.891 18.891 61.109 43.555 85.555 72.668 c 8 9.332 14.891 19.555 22.445 29.555 c 0.88672 0.88672 1.5547 2.4414 0.88672 4.8867 z" stroke-linecap="round"/>
</g>
		<g transform="matrix(1.3333 0 0 1.3333 267.3565 576.8263)">
<path style="stroke: none; stroke-width: 1; stroke-dasharray: none; stroke-linecap: butt; stroke-dashoffset: 0; stroke-linejoin: miter; stroke-miterlimit: 4; is-custom-font: none; font-file-url: none; fill: rgb(0,0,0); fill-rule: nonzero; opacity: 1;" transform=" translate(-800.518, -1032.6202)" d="m 824 1016.4 c 1.5547 4 3.1094 7.1094 -2.2227 8.668 c -0.66797 0.22266 -1.5547 0.89062 -1.332 1.332 c 0.66797 8.8906 -6.8906 9.1094 -12.223 11.332 c -10.223 4.2227 -20.668 7.5547 -31.109 11.109 c -0.44531 -0.89062 -0.89062 -2 -1.5547 -2.8906 c 15.996 -9.9961 31.996 -19.551 48.441 -29.551" stroke-linecap="round"/>
</g>
		<g transform="matrix(1.3333 0 0 1.3333 28.4449 -540.3145)">
<path style="stroke: none; stroke-width: 1; stroke-dasharray: none; stroke-linecap: butt; stroke-dashoffset: 0; stroke-linejoin: miter; stroke-miterlimit: 4; is-custom-font: none; font-file-url: none; fill: rgb(0,0,0); fill-rule: nonzero; opacity: 1;" transform=" translate(-621.335, -194.7642)" d="m 568.67 194.45 c 12.668 -8.668 95.332 -3.5547 105.33 5.1094 c -34.668 -1.5547 -69.109 -3.332 -105.33 -5.1094" stroke-linecap="round"/>
</g>
		<g transform="matrix(1.3333 0 0 1.3333 -282.3726 -403.5642)">
<path style="stroke: none; stroke-width: 1; stroke-dasharray: none; stroke-linecap: butt; stroke-dashoffset: 0; stroke-linejoin: miter; stroke-miterlimit: 4; is-custom-font: none; font-file-url: none; fill: rgb(0,0,0); fill-rule: nonzero; opacity: 1;" transform=" translate(-388.2237, -297.3293)" d="m 498.45 204.22 c 4.668 -1.332 9.7773 -1.7773 14.445 -2.668 c -50 14.891 -94.223 39.332 -134.67 72 c -38.891 31.555 -71.555 68.891 -102.45 108 c -2.668 3.332 -5.5547 6.4453 -8.4453 9.7773 c -0.44531 0.44531 -1.1094 0.66797 -3.7773 1.7773 c 2.8906 -4.668 4.668 -7.7773 6.668 -10.668 c 30.891 -44.668 67.555 -83.777 110.67 -116.45 c 35.555 -27.328 73.777 -49.773 117.55 -61.773" stroke-linecap="round"/>
</g>
		<g transform="matrix(1.3333 0 0 1.3333 -310.6729 -574.5236)" clip-path="url(#CLIPPATH_3)">
<clipPath id="CLIPPATH_3">
	<path transform="matrix(1 0 0 1 0.0005 2.1704) translate(-367, -171.28)" id="a" d="m 198 79.555 h 338 v 183.45 h -338 z" stroke-linecap="round"/>
</clipPath>
<path style="stroke: none; stroke-width: 1; stroke-dasharray: none; stroke-linecap: butt; stroke-dashoffset: 0; stroke-linejoin: miter; stroke-miterlimit: 4; is-custom-font: none; font-file-url: none; fill: rgb(0,0,0); fill-rule: nonzero; opacity: 1;" transform=" translate(-366.9995, -169.1096)" d="m 535.11 75.332 c -9.7773 4.8906 -83.777 18.668 -93.555 23.332 c -17.777 8.668 -35.555 17.332 -53.332 26.223 c -16.223 8 -32.223 16 -48.445 24.223 c -37.777 19.109 -71.109 44.668 -101.78 73.777 c -11.777 11.332 -22.445 23.777 -33.777 35.555 c -1.5547 1.5547 -3.332 2.8906 -5.332 4.4453 c 6.4453 -7.7773 12.223 -15.777 19.109 -23.109 c 27.109 -29.332 56.668 -55.332 88.668 -78.668 c 42.668 -31.332 89.109 -55.332 139.78 -71.332 c 7.7773 -2.4453 35.777 -9.1094 44.223 -10" stroke-linecap="round"/>
</g>
		<g transform="matrix(1.3333 0 0 1.3333 -534.8063 -449.3386)">
<path style="stroke: none; stroke-width: 1; stroke-dasharray: none; stroke-linecap: butt; stroke-dashoffset: 0; stroke-linejoin: miter; stroke-miterlimit: 4; is-custom-font: none; font-file-url: none; fill: rgb(0,0,0); fill-rule: nonzero; opacity: 1;" transform=" translate(-198.8953, -262.996)" d="m 198.45 263.33 c 0.22266 -0.22266 0.44531 -0.44531 0.89063 -0.66797 c -0.22656 0.22656 -0.66797 0.66797 -0.89063 0.66797 z" stroke-linecap="round"/>
</g>
		<g transform="matrix(1.3333 0 0 1.3333 -536.1397 -447.8569)">
<path style="stroke: none; stroke-width: 1; stroke-dasharray: none; stroke-linecap: butt; stroke-dashoffset: 0; stroke-linejoin: miter; stroke-miterlimit: 4; is-custom-font: none; font-file-url: none; fill: rgb(0,0,0); fill-rule: nonzero; opacity: 1;" transform=" translate(-197.8953, -264.1073)" d="m 198.45 263.33 c -0.22266 0.66797 -0.66797 1.1094 -1.1094 1.5547 c 0.44141 -0.44141 0.66406 -1.1094 1.1094 -1.5547" stroke-linecap="round"/>
</g>
		<g transform="matrix(1.3333 0 0 1.3333 455.7103 404.1468)">
<path style="stroke: none; stroke-width: 1; stroke-dasharray: none; stroke-linecap: butt; stroke-dashoffset: 0; stroke-linejoin: miter; stroke-miterlimit: 4; is-custom-font: none; font-file-url: none; fill: rgb(0,0,0); fill-rule: nonzero; opacity: 1;" transform=" translate(-941.7842, -903.1115)" d="m 970.89 883.78 c -0.66797 -0.44531 28.445 -35.777 27.777 -36.223 c -24.668 20.445 -69.109 69.555 -88.668 86 c -7.5547 6.8906 -20.668 16 -25.109 25.109 c 20.668 -14.668 45.332 -34.668 62.891 -50.891 c 2.4414 -2.6641 21.328 -20.883 23.109 -23.996" stroke-linecap="round"/>
</g>
		<g transform="matrix(1.3333 0 0 1.3333 445.051 301.7632)">
<path style="stroke: none; stroke-width: 1; stroke-dasharray: none; stroke-linecap: butt; stroke-dashoffset: 0; stroke-linejoin: miter; stroke-miterlimit: 4; is-custom-font: none; font-file-url: none; fill: rgb(0,0,0); fill-rule: nonzero; opacity: 1;" transform=" translate(-933.79, -826.325)" d="m 1002.9 721.55 c -31.109 78 -83.332 159.33 -138.22 209.55 c 72.887 -49.777 119.33 -126.22 138.22 -209.55" stroke-linecap="round"/>
</g>
		<g transform="matrix(1.3333 0 0 1.3333 440.944 352.2967)">
<path style="stroke: none; stroke-width: 1; stroke-dasharray: none; stroke-linecap: butt; stroke-dashoffset: 0; stroke-linejoin: miter; stroke-miterlimit: 4; is-custom-font: none; font-file-url: none; fill: rgb(0,0,0); fill-rule: nonzero; opacity: 1;" transform=" translate(-930.71, -864.225)" d="m 1011.6 766.67 c -27.777 62.445 -108.89 150 -161.78 195.11 c 70.891 -47.332 146.22 -130.45 161.78 -195.11" stroke-linecap="round"/>
</g>
		<g transform="matrix(1.3333 0 0 1.3333 -208.0017 481.8589)">
<path style="stroke: none; stroke-width: 1; stroke-dasharray: none; stroke-linecap: butt; stroke-dashoffset: 0; stroke-linejoin: miter; stroke-miterlimit: 4; is-custom-font: none; font-file-url: none; fill: rgb(0,0,0); fill-rule: nonzero; opacity: 1;" transform=" translate(-444, -961.3949)" d="m 394 935.11 c 14.668 -8.4453 90.891 29.332 100 53.777 c -29.777 -15.109 -30.223 -24.668 -55.777 -36" stroke-linecap="round"/>
</g>
</g>
</g>
</svg>