<svg xmlns="http://www.w3.org/2000/svg" data-name="Layer 1" viewBox="0 0 95 95" x="0px" y="0px"><defs><style>.cls-1{fill-rule:evenodd;}</style></defs><title>a</title><path class="cls-1" d="M48.576,11.712l5.573,3.217a6.8,6.8,0,1,0-13.3,0l5.6-3.235a2.1,2.1,0,0,1,2.122.018Zm-26.3,18.8,2.445,1.412a6.878,6.878,0,0,0,0-2.824L22.273,30.51ZM28.486,34.1l10.7,6.178q.252-.291.525-.564a10.993,10.993,0,0,1,5.68-3.025V24.329a11,11,0,0,1-5.68-3.024q-.273-.273-.525-.564l-5.239,3.024c-.035.023-.071.046-.108.068l-5.352,3.089a11.069,11.069,0,0,1,0,7.175Zm14.466,8.352,2.439,1.408v-2.82a6.788,6.788,0,0,0-2.439,1.412Zm2.439,8.694-2.439,1.408a6.788,6.788,0,0,0,2.439,1.412v-2.82Zm-6.2,3.583L28.486,60.9a11.069,11.069,0,0,1,0,7.175l5.352,3.089,0,0,5.349,3.088q.252-.291.525-.564a11,11,0,0,1,5.68-3.024V58.314a10.993,10.993,0,0,1-5.68-3.025q-.273-.273-.525-.563ZM24.718,63.078,22.273,64.49,24.719,65.9a6.878,6.878,0,0,0,0-2.824Zm-4.54-2.229,2.439-1.408a6.8,6.8,0,0,0-2.439-1.412v2.82Zm6.2-3.582q-.253-.291-.526-.564a10.984,10.984,0,0,0-5.679-3.024V41.321A10.992,10.992,0,0,0,25.857,38.3q.273-.273.526-.564l10.7,6.178a11.052,11.052,0,0,0,0,7.178l-10.7,6.178Zm14.468-8.353L43.3,47.5l-2.448-1.414a6.829,6.829,0,0,0,0,2.828ZM22.617,35.559l-2.439-1.408v2.82a6.8,6.8,0,0,0,2.439-1.412ZM45.391,77.842v-2.82a6.759,6.759,0,0,0-2.439,1.412l2.439,1.408ZM51.7,47.5l2.449,1.414a6.829,6.829,0,0,0,0-2.828L51.7,47.5Zm6.217,3.589,10.7,6.178c.168-.194.344-.382.525-.564a10.991,10.991,0,0,1,5.68-3.024V41.321a11,11,0,0,1-5.68-3.024c-.181-.182-.357-.37-.525-.564l-10.7,6.178a11.052,11.052,0,0,1,0,7.178Zm14.466,8.352,2.439,1.408v-2.82a6.8,6.8,0,0,0-2.439,1.412Zm.344,5.049-2.445-1.412a6.878,6.878,0,0,0,0,2.824l2.446-1.412ZM66.514,60.9a11.069,11.069,0,0,0,0,7.175l-5.352,3.089c-.037.022-.073.044-.108.068l-5.239,3.024q-.252-.291-.525-.564a11,11,0,0,0-5.68-3.024V58.314a10.993,10.993,0,0,0,5.68-3.025q.273-.273.525-.563l10.7,6.177ZM52.048,52.551l-2.439-1.408v2.82a6.788,6.788,0,0,0,2.439-1.412ZM49.609,75.022v2.82l2.439-1.408a6.767,6.767,0,0,0-2.439-1.412ZM74.822,34.151l-2.439,1.408a6.8,6.8,0,0,0,2.439,1.412v-2.82ZM45.391,19.978V17.159l-2.439,1.407a6.759,6.759,0,0,0,2.439,1.412Zm4.218-2.819v2.819a6.767,6.767,0,0,0,2.439-1.412l-2.439-1.407Zm0,7.17a11,11,0,0,0,5.68-3.024q.273-.273.525-.564l5.349,3.088,0,0,5.352,3.089a11.069,11.069,0,0,0,0,7.175l-10.7,6.178q-.252-.291-.525-.564a11,11,0,0,0-5.68-3.025V24.329Zm0,16.708v2.82l2.439-1.408a6.788,6.788,0,0,0-2.439-1.412Zm20.673-9.115,2.445-1.412L70.281,29.1a6.878,6.878,0,0,0,0,2.824Zm-43.9,39.8q-.252.29-.523.56a11.015,11.015,0,1,1-9.9-18.6V41.321a11.016,11.016,0,1,1,9.9-18.6c.181.181.355.367.523.56l5.35-3.089q.057-.033.117-.063l5.236-3.022a11.016,11.016,0,1,1,20.834,0l5.351,3.089,0,0,5.35,3.089c.167-.193.342-.379.522-.56a11.015,11.015,0,1,1,9.9,18.6V53.679a11.016,11.016,0,1,1-9.9,18.6c-.18-.18-.355-.367-.522-.56l-5.35,3.088c-.038.023-.078.044-.117.064L57.917,77.9a11.016,11.016,0,1,1-20.834,0l-5.351-3.089,0,0-5.35-3.088ZM15.959,58.029v6.463h.005a2.1,2.1,0,0,0,1.05,1.821l5.6,3.233a6.8,6.8,0,1,1-6.654-11.517Zm63.082,0a6.8,6.8,0,1,1-6.654,11.517l5.466-3.156a2.109,2.109,0,0,0,1.188-1.9V58.029ZM54.149,80.071l-5.6,3.235a2.1,2.1,0,0,1-2.122-.018l-5.573-3.217a6.8,6.8,0,1,0,13.3,0Zm-38.19-43.1a6.8,6.8,0,1,1,6.654-11.517L17.147,28.61a2.109,2.109,0,0,0-1.188,1.9v6.463ZM72.387,25.454a6.8,6.8,0,1,1,6.654,11.517V30.508h0a2.1,2.1,0,0,0-1.05-1.821Z"/></svg>