<svg xmlns="http://www.w3.org/2000/svg" xmlns:xlink="http://www.w3.org/1999/xlink" version="1.1" x="0px" y="0px" viewBox="0 0 66 66" enable-background="new 0 0 66 66" xml:space="preserve"><g><path d="M60.61,12.0526c0.1002,0.0975,3.3116,3.3025,3.4282,3.4617c0.3198,0.4523,0.3568,1.1109,0.0734,1.6435   c-0.7282,1.3745-2.0479,0.4415-4.184,1.0379c-2.532,0.7232-4.6646,3.7806-4.0693,7.8734c0.2777,1.9789,0.8353,2.9316,0.7352,2.9752   c-1.1449-0.861-5.1257-2.1093-9.1729-1.571c-5.1428,0.8251-10.0869,4.2856-10.2416,9.4125   c-0.2698,7.885,10.7047,8.3723,10.1717,1.66c-0.6448-5.1622-6.5634-3.4398-6.5831-0.4246   c-0.0045,0.1475-0.0069,0.2236-0.0069,0.2236s0.0114-0.0754,0.0336-0.2217c0.2745-2.2069,3.694-3.1677,5.011-1.4485   c0.7275,0.9996,0.7983,2.7777-0.0764,3.9987c-0.8337,1.1785-2.6776,1.6099-4.3754,0.7502   c-4.3899-2.0482-3.0844-10.608,6.3624-11.9203c7.1897-1.1009,12.9693,4.338,12.869,4.2716   c-2.1055-4.722-3.6628-7.9688-3.1309-10.7309c0.31-1.759,1.3903-3.2867,2.8178-3.7495c1.8803-0.6485,3.727,0.1932,4.5385-1.8206   C65.6515,15.4265,63.8859,14.6086,60.61,12.0526z"/><path d="M56.6944,44.2378c2.0632-2.5294,1.6976-6.9178-2.7078-9.3158c-2.5567-1.3846-5.7762-1.6426-6.4481-1.7855   c4.6213,1.5743,9.2229,2.7262,9.0429,8.0095c-0.3621,2.9313-3.9671,3.6391-5.5254,6.3826   c-1.0756,1.9158-0.7793,4.2914,0.3244,6.103c-2.2312-1.458-4.2703-2.657-6.8526-1.6567c-1.4351,0.5599-2.4353,1.702-2.4502,3.2169   c-0.0004,0.3338,0.0231,0.5787,0.0124,0.7274c-0.0625,0.6586-1.3535,0.746-1.9302-0.9078   c-0.5528-1.528-1.2033-7.2806-6.0271-13.494c0.285-1.798,0.4608-4.214,0.4608-6.8792c0-2.2167-0.1223-4.2589-0.3269-5.9202   c0.5159-0.6911,1.1687-1.4966,1.8739-2.4185c1.3658-1.8002,5.1758-5.8677,8.608-8.2422   c6.4885-5.1035,15.3203-7.5429,15.6298-7.6666c-0.253,0.0368-8.0833-1.3049-17.4771,5.2059   c-4.7009,3.7072-6.4947,6.6087-8.2218,9.7821c-0.2821,0.5319-0.5015,1.0375-0.6979,1.5252   c-0.2924-1.4419-0.668-2.3094-1.0776-2.3094c-0.4474,0-0.8531,1.0413-1.1553,2.7291c-0.2101-0.5771-0.4562-1.191-0.7869-1.839   c-1.8102-3.4559-3.5922-6.2564-8.054-9.8871c-6.2711-4.4897-11.226-5.5613-17.4459-5.4921   c0.4822,0.2075,9.2517,2.7867,15.5964,7.9512c3.3681,2.4144,7.1124,6.5373,8.4417,8.3477c0.7689,1.0385,1.4763,1.9309,1.9974,2.673   c-0.1786,1.5925-0.2829,3.5037-0.2829,5.561c0,2.7865,0.191,5.3067,0.4993,7.1263c-0.2017,0.2598-0.4178,0.5442-0.6541,0.8705   c-4.3135,6.19-4.6325,10.5488-5.3136,12.4073c-0.4592,1.6713-2.5811,2.0043-2.086,0.153   c-0.0164-2.8562-3.6002-4.2503-6.2572-3.1606c-1.0615,0.3804-2.0692,1.0338-2.922,1.5845   c1.1014-1.8116,1.4074-4.1855,0.3338-6.1226c-0.6251-1.113-1.5371-1.8517-2.339-2.4826c-1.9473-1.5099-4.0678-2.9408-2.8511-6.1295   c0.5234-1.4059,1.6176-2.4373,2.6758-3.1738c1.8586-1.2681,4.0607-1.8018,6.0093-2.3871   c-1.9792,0.3313-4.2226,0.5652-6.4065,1.7313c-1.2115,0.6638-2.5891,1.6977-3.3429,3.3904   c-3.0473,6.9062,5.8181,6.9454,5.0244,12.436c-0.1648,0.8976-0.6027,1.7081-1.2482,2.4546   c-1.7781,2.0546-4.1941,2.1675-3.4564,3.7574c0.5611,1.3177,2.073,0.5002,3.4275-0.0544c4.2285-1.8281,5.622-4.2469,8.2941-3.2891   c2.3062,0.8496,0.5279,2.0911,1.7495,3.5227c0.5514,0.6825,1.4382,0.941,2.1736,0.8369c3.999-0.4161,1.9242-6.6934,6.8732-15.2617   c0.1357-0.2507,0.264-0.4783,0.3878-0.694c0.2981,1.5684,0.6889,2.5283,1.1182,2.5283c0.4537,0,0.8649-1.0692,1.1683-2.7997   c3.9382,6.8359,4.1772,11.8695,4.6579,13.6032c0.8246,2.7919,3.4726,3.1975,4.663,1.7407c1.1299-1.3137-0.4685-2.714,1.7925-3.5255   c1.8939-0.6667,3.4024,0.4275,5.2221,1.6632c1.0614,0.7114,4.6796,2.6231,5.6192,2.4547c1.1558-0.2444,1.308-1.6187,0.5204-2.1796   l-0.135-0.0869c-0.1748-0.1283-3.6037-1.6792-4.1365-4.6782C51.7901,47.3455,54.5985,46.8307,56.6944,44.2378z"/><path d="M12.8508,29.6605c3.7114-0.8067,8.1286-0.1075,11.1247,2.2646c1.6508,1.2893,2.7402,3.1133,2.8027,5.0268   c0.1025,1.9105-0.8015,3.6567-2.3647,4.3773c-0.7582,0.3798-1.6113,0.5134-2.3763,0.3844   c-0.7599-0.1375-1.4459-0.5377-1.8485-1.113c-0.8363-1.1636-0.7498-2.9019-0.0688-3.8226   c0.7357-0.9493,2.0905-0.9481,2.9374-0.6158c0.899,0.3177,1.4167,0.9445,1.6102,1.4085c0.1166,0.2332,0.1396,0.4315,0.1562,0.5657   c0.0212,0.1342,0.0321,0.2035,0.0321,0.2035s-0.0019-0.0699-0.0056-0.2053c0.0007-0.1371,0.004-0.3426-0.0845-0.5991   c-0.1375-0.5074-0.5983-1.2587-1.5502-1.7403c-0.4743-0.2303-1.0579-0.3802-1.7134-0.367   c-0.6479,0.0135-1.4015,0.255-1.9633,0.8422c-1.0317,1.0547-1.3599,3.3232-0.3088,4.9759   c0.5458,0.8636,1.4818,1.4935,2.5348,1.7538c1.0588,0.2523,2.2139,0.1442,3.2657-0.2967c1.0543-0.418,2.032-1.2307,2.6541-2.2879   c0.6248-1.0485,0.91-2.2941,0.874-3.5247c-0.0311-1.2311-0.3599-2.4749-0.9703-3.5869c-0.6019-1.1058-1.4449-2.0708-2.4084-2.8663   c-1.9358-1.5904-4.3253-2.5559-6.7896-2.9637c-3.8105-0.526-7.8712,0.5847-9.0654,1.4398   c-0.2438-0.1044,2.4323-5.1287-0.8392-9.1185c-2.6682-3.204-5.7442-1.055-6.6465-2.7007c-0.6055-1.1433,0.3039-1.7743,1.2-2.6327   c1.4544-1.4415,2.2855-2.2653,2.2855-2.2653c-0.6101,0.4632-3.4193,2.603-3.8692,3.0825c-0.7866,0.8887-0.572,2.4133,0.4802,3.1305   c0.8731,0.6398,2.0835,0.2158,3.6389,0.7591c1.4815,0.4902,2.5742,2.066,2.8794,3.8521c0.6804,3.6272-2.2469,8.0773-3.0896,10.5869   C9.1569,31.0391,10.118,30.3066,12.8508,29.6605z"/><path d="M33.5555,24.1238c0.7222-5.1275,2.7615-5.8697,4.215-10.0066c1.1385-3.175-0.1742-5.0436-0.1871-5.1486   c-0.0128,0.3333,0.6526,1.5912-0.6483,4.8397C35.6419,17.0099,32.9296,19.3445,33.5555,24.1238z"/><path d="M29.2042,17.0881c0.7312,1.2284,2.1468,3.0961,2.5443,4.3595c0.4832,1.4603,0.2936,2.0762,0.3022,2.2217   c0.024-0.1005,0.5186-0.9673,0.2551-2.3664c-0.4998-2.7196-2.3747-4.1776-3.2858-7.1256c-0.8028-2.5815-0.737-3.9831-0.7925-4.5596   c-0.0088,0.1-0.7211,2.3605-0.0624,4.8093C28.3907,15.3083,28.7456,16.227,29.2042,17.0881z"/></g></svg>