<svg xmlns="http://www.w3.org/2000/svg" xmlns:xlink="http://www.w3.org/1999/xlink" version="1.1" x="0px" y="0px" viewBox="0 0 100 100" enable-background="new 0 0 100 100" xml:space="preserve"><g><path d="M85.9,71c-3.3-9.2-10.4-16.2-19.1-19.7C62,54.5,56.2,56.4,50,56.4c-6.2,0-12-1.9-16.9-5.1C24.4,54.8,17.3,61.8,14.1,71   c-2.4,6.6-3.8,13.5-4.4,20.6c-0.2,3.2,2.4,5.9,5.6,5.9h69.5c3.2,0,5.8-2.7,5.6-5.9C89.8,84.6,88.3,77.7,85.9,71z"/><path d="M50,48.9c12.8,0,23.2-10.4,23.2-23.2S62.8,2.5,50,2.5c-12.8,0-23.2,10.4-23.2,23.2S37.2,48.9,50,48.9z"/></g></svg>