<svg xmlns="http://www.w3.org/2000/svg" xmlns:xlink="http://www.w3.org/1999/xlink" version="1.1" x="0px" y="0px" viewBox="0 0 100 100" style="enable-background:new 0 0 100 100;" xml:space="preserve"><g><path d="M65.7,23.6c1-1.2,0.2-2.8-0.2-6.1c-0.4-3.2-2.2-3.8-2.2-3.8c0,0,0,0,0,0l-4.9-1.2c0,0-3.8-3.6-8.6-3.6v0c0,0,0,0,0,0   c0,0,0,0,0,0v0c-4.8,0-8.6,3.6-8.6,3.6l-4.9,1.2c0,0,0,0,0,0c0,0-1.8,0.6-2.2,3.8c-0.4,3.2-1.2,4.9-0.2,6.1c1,1.2,1.4,2.2,3.6,1.2   c2.2-1,9.7-1.8,12.1-1.8c2.4,0,10.2,0.7,12.4,1.7C64.3,25.8,64.7,24.8,65.7,23.6z M48.7,9.8c2.4-0.6,3.8,1.5,3.9,2.1   c0.2,0.6-1.7,6.1-2.9,6.1c-1.2,0-2.9-4.9-3.2-5.9C46.3,11,48.7,9.8,48.7,9.8z M53.3,21.1c-1-0.2-1.9-0.3-2.9-0.3l-1.2,0   c-1.2,0-2.4,0.1-3.6,0.3c-3.6,0.7-12.3,1.6-9.3-7.3c-0.5,3.2,0.6,4.9,3,5.8c1.2,0.4,2.4,0.5,3.7,0.3c2.4-0.4,7.6-1,13.5,0   c1.1,0.2,2.2,0.1,3.3-0.2c2.7-0.8,4.2-2.5,3.6-6C66.4,22.9,56.7,21.7,53.3,21.1z"/><path d="M66.3,30.8c0.8-1.4-1.1-3.8-2-4.8c-0.2-0.2-0.4-0.3-0.6-0.2c-0.2,0-0.4,0.1-0.6,0.3c-0.2,0.3-5.4,8-6.1,10.9   c-0.6,2.6-1.6,5.5-2.4,8.4c-1.9,5.9-3.8,12-3.4,15.8c0.3,2.7,0.9,9.9,1.4,16.9c0.5,6.8,1,13.3,1.3,15.2c0.4,3.5,2.5,4.4,3.6,4.4   c0,0,0.1,0,0.1,0c8.6-1.2,11.1-32,11.1-34.8c0-1.6-0.5-6.8-1-12.8C67,42.5,66,32.1,66.3,30.8z M62.2,90.2c-0.8,0.7-2.1,1.6-3,1.9   c2.9-2.4,4.6-12.2,5.1-15.6c0.4-0.1,1-0.6,1.7-1.5C65.1,80.3,63.8,86.1,62.2,90.2z M54.8,49.8c0.2,0.1,0.4,0.2,0.7,0.2   c0.2,0,0.4,0,0.6-0.1c0.4-0.1,0.8-0.4,1.2-0.9c-0.1,1.6-0.2,4.6-0.2,5.5l-1.8,5.3c-0.2-3.3-0.5-6.4-0.7-9.4   C54.7,50.3,54.8,50.1,54.8,49.8z M65,30.1C65,30.1,64.9,30.1,65,30.1c0,0,0-0.1,0-0.1C65,30,65,30.1,65,30.1z M64.8,33.6   C64.8,33.6,64.8,33.7,64.8,33.6c-0.5,4.7-2.2,17.3-4,19.1c-1.1,0.8-2.3,1.5-2.8,1.7c0-1.1,0.1-4.6,0.2-6.3c0-0.1,0-0.1,0-0.2   c2.9-4.2,5.6-13.5,6.7-17.4C64.8,31,64.8,31.9,64.8,33.6z M55.7,61.6l2.1-6.3c0,0,0,0,0,0c0.7,0,1.8-0.6,2.8-1.3   c0,0.9,0.1,2.2,0.2,3.6c0,0.1-0.1,0.1-0.1,0.2c-1.4,7.2-3.4,13.5-4.3,13.5c0,0,0,0,0,0c0,0-0.1,0-0.1-0.1c0,0,0,0-0.1-0.1   c-0.2-3-0.5-6.1-0.7-9.1C55.6,61.8,55.6,61.8,55.7,61.6z M56.4,72.1c0.1,0,0.1,0,0.2,0c1.7-0.4,3.5-7.4,4.5-11.7   c0.1,0.4,0.1,0.8,0.2,1.1c0.2,0.5,0.3,1.2,0.4,1.9c0.2,1.2,0.4,2.1,0.8,2.5c-1.1,6.4-3.3,16.4-5,17.1c0,0-0.1,0-0.3-0.1   c0,0-0.1,0-0.1-0.1c-0.3-3.1-0.6-6.8-0.9-10.6C56.3,72.1,56.4,72.1,56.4,72.1z M57.5,83.8c0.1,0,0.3,0,0.4-0.1   c2.3-0.9,4.5-11.6,5.3-16.3c0,2.7,0.1,7.4,0.2,8.5c-0.8,5.8-2.9,14.9-5.2,15.8c-0.2-1-0.6-3.9-0.9-7.9   C57.4,83.8,57.4,83.8,57.5,83.8z M63.3,65.1C63.3,65.1,63.2,65.2,63.3,65.1C63.2,65.2,63.2,65.2,63.3,65.1c-0.3-0.3-0.5-1.3-0.6-2   c-0.1-0.7-0.3-1.4-0.5-2c-0.5-1.7-0.6-6.9-0.7-7.9c1.6-2,2.9-9.8,3.6-14.9c0.2,2.6,0.5,6.1,0.9,10.6C65.3,54.9,64,64.2,63.3,65.1z    M58.5,37.4c0.5-2,3.6-7,5.3-9.6c0.2,0.3,0.4,0.6,0.6,0.9C63,34,58.8,48,55.8,49c-0.2,0.1-0.5,0.1-0.7-0.1c0.3-1,0.6-2.1,1-3.1   C56.9,43,57.9,40,58.5,37.4z M57.5,96.2c-0.3,0-1.8-0.3-2.1-3.1c-0.2-1.8-0.7-8.3-1.3-15.1c-0.5-7-1.1-14.2-1.4-17   c-0.2-2,0.3-4.9,1.2-8c0.7,9.6,2.8,37.5,3.6,39.3c0,0,0,0,0,0c0,0,0,0,0,0c0.2,0.3,0.5,0.6,0.9,0.6c0.1,0,0.2,0,0.3,0   c0.8,0,1.9-0.6,2.8-1.2C60.3,94.3,59,95.9,57.5,96.2z M66.2,73.1c-0.7,1.1-1.5,2.1-1.9,2.5c-0.2-1.5-0.2-7.6-0.2-10.1   c0.8-1.4,1.8-7.9,2.4-12.5c0.4,4.6,0.8,8.6,0.8,9.9C67.3,64.6,66.9,68.5,66.2,73.1z"/><path d="M43,37.4c-0.7-2.9-5.9-10.6-6.1-10.9c-0.1-0.2-0.3-0.3-0.6-0.3c-0.2,0-0.5,0.1-0.6,0.2c-0.9,1-2.7,3.3-2,4.8   c0.3,1.3-0.7,11.7-1.4,19.3c-0.6,6-1,11.2-1,12.8c0,2.8,2.5,33.6,11.1,34.8c0,0,0.1,0,0.1,0c1.1,0,3.2-0.9,3.6-4.4   c0.2-1.9,0.7-8.3,1.3-15.2c0.5-7,1.1-14.2,1.4-16.9c0.4-3.8-1.5-9.9-3.4-15.8C44.6,42.9,43.6,39.9,43,37.4z M34.1,75.4   c0.7,0.9,1.3,1.4,1.7,1.5c0.5,3.3,2.2,13.2,5.1,15.6c-0.9-0.3-2.2-1.2-3-1.9C36.2,86.4,35,80.6,34.1,75.4z M35.1,30.3   c0,0.1,0,0.1,0,0.2c0,0,0,0,0-0.1C35.1,30.4,35.1,30.3,35.1,30.3z M35.2,30.8c1.1,4,3.8,13.2,6.7,17.4c0,0.1,0,0.1,0,0.2   c0.1,1.8,0.3,5.3,0.2,6.3c-0.5-0.1-1.7-0.8-2.8-1.6c-1.9-1.8-3.6-14.4-4-19.1c0,0,0,0,0,0C35.3,32.2,35.3,31.3,35.2,30.8z    M38.5,53.6c0,1-0.1,6.2-0.7,7.9c-0.2,0.6-0.3,1.3-0.5,2c-0.1,0.7-0.3,1.7-0.5,2c0,0,0,0,0,0c0,0,0,0-0.1-0.1   c-0.7-1-2.1-10.2-2.8-16.2c0.4-4.5,0.7-7.9,0.9-10.6C35.6,43.7,36.9,51.5,38.5,53.6z M41.8,92c-2.3-0.9-4.4-10-5.2-15.8   c0.2-1.1,0.2-5.8,0.2-8.5c0.8,4.7,3,15.5,5.3,16.3c0.1,0,0.3,0.1,0.4,0.1c0.1,0,0.1,0,0.2,0C42.4,88.1,42,91,41.8,92z M42.9,83   c0,0-0.1,0-0.1,0.1c-0.1,0.1-0.2,0.1-0.3,0.1c-1.7-0.6-3.9-10.7-5-17.1c0.3-0.4,0.5-1.3,0.8-2.5c0.1-0.7,0.3-1.4,0.4-1.9   c0.1-0.3,0.2-0.6,0.2-1.1c1,4.3,2.8,11.3,4.5,11.7c0.1,0,0.1,0,0.2,0c0,0,0.1,0,0.1,0C43.5,76.3,43.2,79.9,42.9,83z M43.9,71.3   C43.9,71.3,43.8,71.4,43.9,71.3c-0.2,0.2-0.2,0.2-0.2,0.2c0,0,0,0,0,0c-0.9,0-2.9-6.3-4.3-13.5c0-0.1,0-0.1-0.1-0.2   c0.1-1.4,0.1-2.7,0.2-3.6c1,0.7,2.1,1.3,2.8,1.3c0,0,0,0,0,0l2.1,6.3c0,0.1,0.1,0.2,0.2,0.2C44.4,65.2,44.1,68.3,43.9,71.3z    M44.8,60.2L43,54.8c0.1-0.9-0.1-3.9-0.2-5.5c0.4,0.4,0.8,0.7,1.2,0.9c0.2,0.1,0.4,0.1,0.6,0.1c0.2,0,0.5-0.1,0.7-0.2   c0.1,0.2,0.1,0.5,0.2,0.7C45.2,53.7,45,56.9,44.8,60.2z M36.2,28.1c1.7,2.6,4.8,7.6,5.3,9.6c0.6,2.6,1.6,5.6,2.5,8.5   c0.3,1,0.6,2.1,1,3.1c-0.2,0.1-0.4,0.2-0.7,0.1c-3.1-1-7.3-15-8.6-20.4C35.8,28.7,36,28.4,36.2,28.1z M33.6,53.3   c0.6,4.6,1.6,11.1,2.4,12.5c0,2.5,0,8.5-0.2,10.1c-0.4-0.4-1.2-1.4-1.9-2.5c-0.7-4.6-1-8.5-1-10.2C32.8,61.9,33.2,57.9,33.6,53.3z    M47.3,61.4c-0.3,2.8-0.9,10-1.4,17c-0.5,6.8-1,13.3-1.3,15.1c-0.3,2.8-1.9,3-2.1,3.1c-1.5-0.3-2.8-1.9-4-4.3   c0.9,0.6,1.9,1.2,2.8,1.2c0.1,0,0.2,0,0.3,0c0.4-0.1,0.7-0.3,0.9-0.6c0,0,0,0,0,0c0,0,0,0,0,0c0.8-1.8,2.9-29.7,3.6-39.3   C47,56.5,47.5,59.4,47.3,61.4z"/><path d="M35.8,12.1c0,0,3.8-0.4,4.9-1.6s0.8-3-1.5-3.9S33.8,7.9,34,10C34.1,12.1,35.8,12.1,35.8,12.1z"/><path d="M58.6,10.5c1.1,1.2,4.9,1.6,4.9,1.6s1.7,0,1.8-2.1c0.2-2.1-2.9-4.2-5.2-3.3S57.5,9.3,58.6,10.5z"/><path d="M42.6,9.4c0,0,3-1.9,6.9-1.9s7.1,2,7.1,2c-0.7-1.9,1.6-3.9,1.6-3.9l-5.1-1.7c0,0-1.6-1.8-3.6-1.8c-2,0-3.3,1.6-4,1.9   c-0.7,0.3-5.6,1.5-5.6,1.5C43.4,7.1,42.6,9.4,42.6,9.4z"/><path d="M54.7,39.6c0,0-4.7-1.2-9.6,0.2l1.3,3.7c0,0,3.6-0.6,7.2,0L54.7,39.6z"/><path d="M53,45.4c0,0-3-1.1-6.2,0l1.1,3.7c0,0,2.5-0.4,3.9,0L53,45.4z"/><path d="M48.3,51.1l1.4,4.9l0.4-0.1l1.4-4.9C51.5,51,49.8,50.4,48.3,51.1z"/><polygon points="49.7,64.9 49.1,71.7 51,71.7 50.1,64.9  "/><path d="M55.6,35.6l5.3-8.5c0,0,0.5-0.8-0.5-1.1c-3.1-0.9-12.2-1.9-21-0.2c0,0-1.1,0.2-0.3,1.5c0.8,1.3,4.4,7.2,5.2,8.8l0.5,2   c0,0,5.4-1,10.3,0L55.6,35.6z M44.8,34.4l-1.4-2c1.5-1.7,0.8-5.8,0.8-5.8s0.9,3.6,2.4,3.5c1.5-0.2,2.7-4.3,2.7-4.3   C49.3,33.2,44.8,34.4,44.8,34.4z M50.1,25.9c0,0,1.2,4.1,2.7,4.3c1.5,0.2,2.4-3.5,2.4-3.5s-0.8,4.1,0.8,5.8l-1.4,2   C54.6,34.4,50.1,33.2,50.1,25.9z"/><path d="M75.6,36.8c0,0,1.4-1.2,1.1-2.1c0,0-2.3-1.8-5.5-6.2c0,0-1.9-3.3-4.9-2.7c0,0,1.4,1.1,1.7,2.7l0.3,0.3   C69.4,29.2,71.9,34.4,75.6,36.8z"/><path d="M83.6,35.9c0,0-2.4-0.8-5.6-0.3l-0.8,1.7c0,0,0.9-0.3,2.4-0.2c1.5,0.2,4.1,0.3,4.1,0.3l0.9,0.6v-2.7L83.6,35.9z"/><path d="M32,28.9c0.3-1.7,1.7-2.7,1.7-2.7c-2.6-0.9-4.9,2.7-4.9,2.7c-3.2,4.4-5.5,6.2-5.5,6.2c-0.3,0.9,1.1,2.1,1.1,2.1   c3.6-2.4,6.2-7.6,7.3-8L32,28.9z"/><path d="M22,36.1c-3.2-0.5-5.6,0.3-5.6,0.3l-1.1-0.6v2.7l0.9-0.6c0,0,1.4-0.2,2.9-0.3c1.5-0.2,3.6,0.2,3.6,0.2L22,36.1z"/><path d="M72.8,56.5c0,0-1.1-2-3.6-4.4l0.3,3.8l2.3,2.3c0,0,3.6,0.2,4.6,1.5l0.3,1.8l2.3-3h-1.5C77.4,58.5,76.2,57.1,72.8,56.5z"/><path d="M27.2,56.5c-3.3,0.6-4.6,2-4.6,2h-1.5l2.3,3l0.3-1.8c0.9-1.4,4.6-1.5,4.6-1.5l2.3-2.3l0.3-3.8   C28.2,54.6,27.2,56.5,27.2,56.5z"/><path d="M28.1,10.3c-0.3,0.5,2.4,3.3,2.4,3.3l2.2,2.2l1.5-2.7l-1-1.1c0,0-2.5-3.2-3.2-3.2C29.4,8.8,28.4,9.8,28.1,10.3z"/><path d="M27.4,9c0.5-0.5,1.8-1.1,1.8-1.1l-2.1-2.8L27,3.9l-2.6,1.3l1,0.3L27.4,9z"/><path d="M69,13.6c0,0,2.7-2.8,2.4-3.3c-0.3-0.5-1.2-1.5-1.9-1.5c-0.7,0-3.2,3.2-3.2,3.2l-1,1.1l1.5,2.7L69,13.6z"/><path d="M74.2,5.5l1-0.3l-2.6-1.3L72.5,5l-2.1,2.8c0,0,1.3,0.6,1.8,1.1L74.2,5.5z"/></g></svg>