<svg xmlns="http://www.w3.org/2000/svg" xmlns:xlink="http://www.w3.org/1999/xlink" xml:space="preserve" version="1.1" style="shape-rendering:geometricPrecision;text-rendering:geometricPrecision;image-rendering:optimizeQuality;" viewBox="0 0 850 850" x="0px" y="0px" fill-rule="evenodd" clip-rule="evenodd"><defs><style type="text/css">
   
    
   
  </style></defs><g><path class="fil0" d="M464 240c0,0 -61,17 -59,77 0,0 98,-61 150,28 0,0 -97,-71 -160,17 0,0 74,-44 119,5 0,0 -64,-21 -83,10 0,0 53,-20 118,24 60,-53 76,58 142,49 44,-6 24,-70 17,-75 0,0 -11,71 -30,-6 -30,70 -78,-36 -100,-68 0,0 29,-36 114,-14 0,0 55,10 78,-15l0 33c8,-21 23,-61 36,-2 58,-105 -66,-91 -122,-88 2,-67 -137,-26 -212,-108l5 33c-11,-56 -89,-36 -129,-69 19,49 80,30 80,72 0,3 -17,-29 -71,-21 0,0 -103,-3 -113,-30 24,73 178,30 144,64 0,0 -176,25 -224,-58 5,174 268,28 300,142zm146 8c-6,-34 -54,-29 -54,-29 54,-36 90,21 90,21l-36 8z"/><path class="fil0" d="M382 348c0,0 -11,-81 54,-117 -42,-33 -107,-1 -172,-19 0,0 66,26 72,43 0,0 -136,-69 -223,9 0,0 75,-12 99,23 0,0 -115,-32 -175,74 0,0 72,-31 100,-10 0,0 -86,14 -96,113 0,0 17,-35 75,-47 0,0 -76,54 -46,211 0,0 9,-67 38,-85 0,0 -21,107 85,184l0 -54c0,0 97,138 337,102 -291,-30 -361,-340 -148,-427z"/></g></svg>