<svg xmlns="http://www.w3.org/2000/svg" xmlns:xlink="http://www.w3.org/1999/xlink" version="1.1" x="0px" y="0px" viewBox="0 0 100 100" enable-background="new 0 0 100 100" xml:space="preserve"><g><path fill-rule="evenodd" clip-rule="evenodd" d="M63.233,41.382c4.747,10.557-0.784,22.137-7.806,28.233   c-11.491,9.996-29.91,12.474-38.606,3.196C3.346,58.51,14.072,36.953,34.288,23.484C51.305,12.164,71.785,5.336,95,5.495   C75.958,9.772,54.346,17.221,41.783,28.493c-10.289,9.163-13.735,21.876-7.444,32.113C41.312,71.873,62.665,63.536,63.233,41.382   L63.233,41.382z M36.767,58.617c-4.747-10.557,0.784-22.137,7.806-28.233c11.545-9.992,29.914-12.528,38.66-3.192   C96.654,41.49,85.928,63.047,65.766,76.52C48.749,87.84,28.269,94.668,5,94.505c19.096-4.273,40.654-11.726,53.271-22.994   c10.235-9.167,13.685-21.934,7.39-32.117C58.742,28.131,37.335,36.464,36.767,58.617L36.767,58.617z"/></g></svg>