<?xml version="1.0" standalone="no"?>
<!DOCTYPE svg PUBLIC "-//W3C//DTD SVG 20010904//EN"
 "http://www.w3.org/TR/2001/REC-SVG-20010904/DTD/svg10.dtd">
<svg version="1.0" xmlns="http://www.w3.org/2000/svg"
 width="403.000000pt" height="403.000000pt" viewBox="0 0 403.000000 403.000000"
 preserveAspectRatio="xMidYMid meet">

<g transform="translate(0.000000,403.000000) scale(0.100000,-0.100000)"
fill="#000000" stroke="none">
<path d="M1735 3571 c-11 -5 -31 -21 -45 -36 l-25 -28 32 17 c47 24 93 20 144
-12 50 -32 94 -104 105 -170 6 -40 8 -41 20 -23 32 44 -27 181 -98 228 -37 25
-103 37 -133 24z"/>
<path d="M2202 3561 c-79 -37 -132 -117 -132 -200 0 -63 16 -75 25 -19 24 144
164 244 249 177 35 -27 33 -10 -2 25 -38 36 -86 42 -140 17z"/>
<path d="M520 3465 c-36 -7 -83 -21 -105 -31 l-40 -18 75 -8 c133 -14 158 -27
281 -144 123 -117 165 -141 274 -159 l40 -6 -50 30 c-58 33 -125 103 -125 129
0 30 30 63 53 60 19 -3 22 -9 19 -38 -3 -32 2 -40 45 -77 212 -179 438 -253
769 -253 92 0 104 2 114 19 14 27 15 26 -37 46 -69 26 -167 76 -332 170 -306
174 -480 251 -631 279 -98 19 -260 19 -350 1z m742 -290 c104 -40 337 -147
338 -156 0 -8 -154 24 -220 46 -68 22 -155 73 -194 114 -17 17 -27 31 -24 31
4 0 48 -16 100 -35z"/>
<path d="M3150 3460 c-154 -33 -304 -100 -610 -274 -173 -98 -276 -149 -362
-179 -14 -5 -16 -11 -9 -29 8 -22 14 -23 117 -26 311 -9 576 81 772 262 39 36
43 43 37 74 -6 32 -5 33 22 30 36 -4 55 -40 41 -77 -14 -38 -35 -59 -103 -103
l-60 -39 45 7 c84 12 145 48 249 148 55 52 117 104 139 115 37 19 122 37 202
44 l35 2 -38 17 c-108 49 -323 61 -477 28z m-311 -293 c-61 -57 -153 -100
-265 -126 -146 -33 -151 -26 -24 36 104 51 300 130 325 132 6 0 -11 -19 -36
-42z"/>
<path d="M1809 3394 l21 -26 -65 -71 c-36 -38 -64 -75 -62 -81 4 -13 119 -77
126 -70 3 2 -8 17 -22 32 -15 16 -27 32 -27 37 0 6 21 41 47 78 l48 69 -33 29
c-40 36 -60 38 -33 3z"/>
<path d="M2198 3391 l-32 -29 47 -71 c52 -79 54 -83 31 -101 -8 -8 -20 -22
-25 -33 -9 -16 0 -13 52 14 35 19 64 39 66 45 2 6 -26 43 -62 81 l-65 71 21
26 c27 35 7 33 -33 -3z"/>
<path d="M1945 3270 c-59 -44 -75 -68 -75 -109 0 -31 31 -101 44 -101 3 0 22
12 43 26 45 30 94 29 141 -5 34 -24 41 -19 67 43 25 59 6 96 -74 148 -57 36
-95 35 -146 -2z m-6 -71 c-39 -30 -47 -22 -17 18 5 6 16 9 25 6 13 -5 11 -9
-8 -24z m201 -5 c0 -13 -4 -12 -24 3 -13 10 -22 21 -19 26 7 11 43 -12 43 -29z"/>
<path d="M695 3073 c-143 -20 -334 -110 -379 -178 l-15 -23 52 21 c44 18 73
22 192 22 120 0 152 -4 225 -25 80 -23 96 -25 270 -21 102 2 182 0 179 -3 -4
-4 -73 -18 -155 -32 -232 -39 -312 -71 -401 -160 -74 -74 -116 -165 -121 -262
-6 -104 18 -152 82 -168 l30 -7 -22 35 c-84 136 23 340 203 387 23 6 88 16
145 22 58 6 143 19 190 30 84 19 234 68 228 75 -2 2 -40 -3 -83 -11 -44 -8
-132 -14 -195 -14 l-115 1 175 33 c96 17 243 46 325 63 83 16 186 35 229 42
44 7 89 16 100 21 19 9 18 9 -4 4 -14 -3 -108 -8 -210 -11 -268 -9 -434 24
-511 100 -30 30 -45 36 -124 50 -83 15 -218 19 -290 9z"/>
<path d="M3046 3064 c-61 -12 -84 -21 -106 -43 -36 -35 -94 -63 -185 -87 -60
-16 -105 -19 -305 -18 l-235 1 133 -24 c73 -12 177 -32 230 -44 53 -11 178
-36 277 -54 l180 -33 -120 -1 c-66 0 -154 6 -195 13 -41 8 -76 12 -78 11 -5
-5 103 -44 177 -64 37 -10 110 -24 162 -30 248 -31 292 -44 362 -114 60 -60
90 -135 85 -213 -3 -46 -10 -72 -26 -94 -19 -25 -20 -30 -6 -30 26 0 71 31 84
58 31 70 17 185 -37 284 -54 99 -178 188 -309 222 -32 8 -108 22 -169 32 -175
26 -168 35 23 29 164 -4 177 -3 260 21 153 45 328 45 467 -1 12 -4 -1 13 -29
39 -133 126 -397 184 -640 140z"/>
<path d="M1970 3041 c-57 -57 -77 -204 -34 -253 26 -29 74 -47 107 -41 37 7
83 54 90 92 8 37 -7 120 -28 161 -38 73 -88 89 -135 41z"/>
<path d="M1815 2858 c-43 -29 -216 -111 -221 -105 -3 3 21 21 53 41 31 20 55
36 53 36 -20 -1 -120 -39 -255 -98 -151 -65 -337 -132 -370 -132 -8 0 -15 -4
-15 -8 0 -5 32 -15 71 -21 39 -7 67 -16 62 -20 -4 -4 -35 -25 -68 -46 -129
-86 -308 -282 -372 -409 -22 -44 -63 -150 -63 -164 0 -2 28 20 63 50 115 101
225 161 554 304 337 145 391 187 487 382 l46 93 -58 -57 c-119 -119 -252 -197
-324 -192 -36 2 -44 7 -46 26 -3 19 -15 11 -90 -66 -83 -85 -134 -119 -229
-152 -24 -8 -25 -8 -9 3 10 6 45 29 78 50 32 22 100 84 151 139 98 105 140
138 178 138 l23 0 -22 -16 c-42 -29 -14 -69 37 -54 113 32 313 196 327 268 7
37 1 38 -41 10z"/>
<path d="M2186 2850 c5 -68 188 -223 315 -267 38 -12 44 -12 58 2 19 18 4 51
-23 49 -9 -1 -13 2 -10 7 9 15 45 10 79 -11 17 -11 56 -48 85 -82 77 -91 147
-154 213 -195 62 -39 71 -48 33 -33 -80 30 -139 70 -214 146 -46 46 -85 84
-87 84 -3 0 -5 -7 -5 -15 0 -27 -44 -36 -97 -20 -62 19 -182 98 -259 172 l-61
58 35 -75 c46 -100 73 -141 124 -190 58 -56 126 -93 373 -201 340 -148 424
-195 538 -299 32 -29 57 -48 57 -43 0 23 -43 131 -71 182 -69 122 -193 261
-317 353 -53 39 -101 75 -106 79 -5 4 19 13 53 20 34 6 63 15 65 18 3 4 -26
15 -62 25 -60 17 -158 55 -432 169 -124 51 -143 54 -78 11 32 -21 56 -40 53
-42 -6 -6 -127 52 -195 93 -32 19 -60 35 -62 35 -2 0 -3 -14 -2 -30z"/>
<path d="M1900 2720 c0 -121 69 -213 146 -194 59 15 116 137 98 208 l-6 27
-23 -21 c-48 -45 -130 -45 -189 1 l-26 20 0 -41z"/>
<path d="M1832 2693 c-35 -75 -38 -187 -6 -247 l21 -39 9 171 c5 95 8 172 6
172 -2 0 -15 -26 -30 -57z"/>
<path d="M2184 2715 c3 -16 8 -90 12 -164 6 -120 8 -132 20 -110 7 13 18 48
24 77 10 46 9 62 -9 120 -11 37 -27 76 -36 87 -15 19 -16 19 -11 -10z"/>
<path d="M1902 2464 c7 -114 23 -159 71 -200 40 -34 90 -28 129 15 36 40 48
89 48 195 l0 90 -27 -26 c-61 -58 -128 -59 -190 -5 l-36 32 5 -101z"/>
<path d="M1627 2300 c-15 -21 -34 -58 -42 -81 -19 -53 -19 -169 -1 -213 15
-36 82 -116 97 -116 5 0 9 17 9 38 1 80 76 156 165 169 l45 6 0 46 c0 47 -14
118 -24 129 -4 3 -19 -6 -34 -20 -37 -35 -65 -48 -101 -48 -48 0 -74 33 -83
107 -3 19 -6 18 -31 -17z"/>
<path d="M2390 2294 c-1 -73 -65 -89 -146 -36 l-49 31 -3 -85 c-2 -62 3 -105
19 -164 13 -50 20 -99 17 -134 -1 -31 0 -56 3 -56 14 0 59 101 79 175 23 88
31 100 71 121 38 19 55 18 81 -8 l21 -21 -6 46 c-8 54 -35 113 -66 141 -21 19
-21 19 -21 -10z"/>
<path d="M2125 2259 c-30 -48 -124 -61 -167 -22 -19 17 -19 16 -11 -47 19
-150 4 -228 -74 -383 -90 -182 -121 -334 -89 -454 24 -95 51 -139 142 -234 74
-77 84 -92 84 -124 0 -27 -8 -44 -31 -67 l-30 -31 36 6 c52 9 83 32 93 70 l9
32 16 -32 c40 -77 8 -146 -74 -159 -34 -6 -39 -9 -24 -15 11 -4 38 -8 60 -9
l40 -1 -27 -23 c-58 -52 -164 -40 -228 24 -65 65 -75 161 -24 235 30 44 19 45
-33 0 -143 -122 -90 -357 96 -420 55 -19 161 -20 204 -1 31 12 107 89 107 107
0 5 -15 0 -32 -10 -69 -39 -82 -35 -33 10 26 24 56 61 67 84 42 80 18 216 -50
289 -15 16 -56 48 -92 71 -84 55 -113 86 -146 160 -22 48 -28 74 -28 135 0 96
25 171 104 310 81 142 117 231 135 339 18 100 17 188 0 160z"/>
<path d="M1392 2078 c-5 -7 -21 -40 -34 -73 -41 -98 -131 -286 -136 -281 -6 6
43 152 84 251 l34 80 -41 -45 c-59 -66 -114 -164 -145 -260 -24 -75 -27 -101
-27 -212 -1 -71 -4 -128 -7 -128 -4 0 -15 9 -25 20 -41 45 -93 10 -79 -52 l6
-31 -33 22 c-62 40 -124 69 -194 90 -78 23 -211 40 -265 34 -134 -15 -137 -13
60 -54 172 -35 278 -67 351 -104 49 -26 33 -24 -53 6 -46 15 -173 45 -283 65
-250 46 -268 48 -294 35 -22 -12 -29 -55 -10 -67 6 -3 47 -52 91 -108 79 -101
179 -191 225 -202 49 -13 103 3 160 47 l57 42 -26 -34 c-49 -65 -60 -98 -56
-160 5 -72 41 -122 111 -158 60 -30 104 -23 150 23 51 51 71 128 72 269 0 64
1 117 2 117 1 0 16 -28 33 -62 84 -165 188 -293 233 -286 20 3 22 8 20 56 -3
63 -42 163 -112 290 -28 51 -51 94 -51 97 0 3 23 -13 51 -34 126 -95 250 -126
319 -79 74 50 88 143 35 233 -52 90 -133 107 -256 55 -38 -16 -90 -43 -115
-61 -62 -42 -67 -30 -7 18 54 42 100 64 185 88 144 39 167 127 84 327 -18 46
-39 110 -46 143 -7 33 -16 68 -21 78 -11 20 -32 22 -47 5z m33 -340 c-59 -42
-141 -137 -197 -228 -32 -52 -58 -88 -58 -82 0 6 11 41 24 77 40 110 92 172
186 224 64 35 89 40 45 9z m-410 -467 c-6 -5 -39 -21 -75 -36 -91 -38 -177
-44 -252 -15 -71 26 -86 44 -20 23 56 -18 151 -12 262 17 89 22 97 23 85 11z"/>
<path d="M2612 2073 c-6 -10 -13 -34 -17 -53 -4 -19 -27 -85 -51 -147 -73
-187 -59 -266 58 -328 72 -39 80 -47 32 -33 -89 24 -189 -18 -225 -95 -26 -58
-25 -126 4 -168 63 -94 189 -90 347 12 45 29 61 35 55 22 -20 -51 -18 -81 8
-107 33 -33 71 -33 103 -1 14 14 26 25 27 25 1 0 2 -57 2 -128 1 -111 4 -134
24 -180 13 -29 37 -64 54 -78 27 -23 38 -26 87 -22 71 5 112 35 147 105 36 74
24 136 -45 233 -12 17 -2 12 36 -18 30 -23 65 -45 79 -48 75 -19 175 40 271
161 36 44 82 99 104 123 22 24 38 51 36 60 -4 23 -59 48 -146 67 -189 39 -407
-1 -535 -98 -54 -42 -62 -45 -47 -18 15 28 12 57 -6 76 -19 19 -49 12 -82 -19
l-24 -21 7 66 c14 131 -25 317 -92 441 -35 67 -153 188 -181 188 -12 0 -25 -8
-30 -17z m68 -405 c0 -7 30 -62 66 -121 36 -60 64 -110 62 -112 -6 -6 -101
113 -119 148 -21 41 -31 97 -19 97 6 0 10 -6 10 -12z m525 -424 c50 -9 117
-14 150 -11 l60 5 -35 -16 c-64 -28 -131 -27 -225 2 -128 40 -108 48 50 20z"/>
<path d="M2137 1943 c-16 -48 -46 -117 -67 -153 -21 -36 -33 -67 -28 -69 5 -2
29 10 51 26 79 56 118 177 84 256 -12 27 -13 25 -40 -60z"/>
<path d="M1826 1959 c-72 -66 -116 -150 -116 -223 0 -51 18 -126 30 -126 4 0
11 20 14 45 4 24 31 93 60 152 57 116 80 177 74 194 -2 6 -30 -13 -62 -42z"/>
<path d="M2376 1905 c-11 -42 -82 -112 -134 -131 -26 -9 -67 -36 -92 -60 -53
-49 -100 -75 -141 -76 -25 -1 -30 -6 -40 -42 -14 -53 -6 -121 18 -155 38 -50
81 -71 147 -71 l61 0 -32 16 c-85 42 -77 153 16 237 54 49 100 51 142 6 l29
-31 0 33 c0 19 11 69 25 112 25 79 32 151 16 175 -6 10 -10 7 -15 -13z"/>
<path d="M1011 1888 c-27 -15 -49 -44 -39 -53 4 -4 22 -1 42 6 69 25 84 -23
40 -131 -15 -38 -26 -86 -27 -120 -2 -53 -4 -56 -36 -72 -33 -17 -35 -16 -75
11 -39 27 -163 81 -184 81 -6 0 -20 12 -31 26 -25 31 -14 60 25 70 32 8 26 28
-10 32 -66 8 -103 -89 -53 -136 12 -12 58 -33 102 -47 92 -31 127 -50 174 -99
41 -42 51 -45 51 -11 0 31 32 50 59 35 11 -5 21 -10 24 -10 2 0 1 37 -1 83 -4
76 -2 89 27 156 37 87 39 121 9 155 -28 31 -65 40 -97 24z"/>
<path d="M2983 1893 c-32 -6 -63 -50 -63 -87 0 -17 9 -50 20 -74 29 -64 42
-152 31 -204 -6 -23 -11 -46 -11 -49 0 -3 19 -5 43 -5 39 1 42 -1 45 -26 2
-16 6 -28 9 -28 3 0 25 18 48 39 50 46 123 85 190 102 26 6 60 23 76 36 66 56
13 167 -65 137 -23 -9 -20 -21 9 -28 32 -8 49 -40 36 -65 -6 -10 -43 -30 -88
-45 -43 -15 -101 -43 -130 -61 -49 -33 -53 -34 -81 -20 -26 14 -30 21 -36 79
-3 36 -17 98 -30 138 -17 52 -21 78 -14 91 14 27 38 32 69 14 18 -10 31 -12
35 -6 7 11 -22 59 -35 59 -5 0 -15 2 -23 4 -7 2 -23 1 -35 -1z"/>
<path d="M1935 1415 c19 -146 162 -270 274 -237 21 7 46 21 57 33 19 22 19 22
-4 15 -35 -12 -78 3 -124 40 -22 19 -57 42 -77 50 -48 20 -89 60 -113 109
l-19 40 6 -50z"/>
<path d="M2720 1110 c-43 -85 -72 -194 -63 -230 14 -54 104 18 196 157 51 78
54 85 35 82 -38 -5 -60 5 -92 37 l-35 36 -41 -82z"/>
<path d="M2228 1123 c-16 -2 -28 -7 -28 -10 0 -3 15 -35 33 -72 30 -62 32 -71
32 -176 -1 -135 -22 -193 -96 -259 -81 -73 -128 -91 -239 -91 -84 0 -102 3
-151 28 -105 51 -196 179 -207 289 -3 27 -9 51 -15 55 -18 11 -1 -167 23 -229
31 -83 107 -163 195 -205 63 -30 78 -33 155 -32 96 1 129 10 194 56 46 33 105
113 123 168 l10 30 7 -28 c14 -58 -31 -154 -89 -188 -47 -28 -44 -31 12 -11
57 21 137 91 165 146 40 78 18 208 -39 230 -25 10 -1 28 33 24 23 -2 34 -13
52 -48 21 -43 22 -43 22 -14 0 88 -55 209 -116 254 -40 30 -39 41 6 56 18 6
29 13 24 17 -15 9 -77 15 -106 10z"/>
<path d="M0 20 c0 -11 5 -20 10 -20 6 0 10 9 10 20 0 11 -4 20 -10 20 -5 0
-10 -9 -10 -20z"/>
</g>
</svg>
