<svg xmlnsX="http://ns.adobe.com/Extensibility/1.0/" xmlnsI="http://ns.adobe.com/AdobeIllustrator/10.0/" xmlnsGraph="http://ns.adobe.com/Graphs/1.0/" xmlns="http://www.w3.org/2000/svg" xmlnsXlink="http://www.w3.org/1999/xlink" version="1.1" x="0px" y="0px" viewBox="0 0 100 100" enable-background="new 0 0 100 100" xml:space="preserve"><metadata><sfw xmlns="http://ns.adobe.com/SaveForWeb/1.0/"><slices/><sliceSourceBounds width="83.865" height="59.316" x="378.567" y="267.842" bottomLeftOrigin="true"/></sfw></metadata><g><path d="M28.417,28.701c4.055,0,7.728,1.268,10.801,3.529c0.404,0.298,0.794,0.618,1.177,0.949   c0.732-0.975,1.815-1.541,2.959-1.633c0.173-0.021,0.352-0.033,0.526-0.03c3.451,0.053,12.355,0.547,13.745,0.596   c1.948,0.07,3.529,1.58,3.529,3.531c0,1.947-1.582,3.441-3.529,3.527c-4.626,0.203-8.681,0.429-10.172,0.513   c0,0.028-0.006,0.056-0.004,0.084c0.057,0.826,0.769,1.469,1.6,1.395c0.045-0.003,4.633-0.313,8.643-0.493   c2.227-0.099,4.045-1.54,4.692-3.487c2.402-0.079,5.337-0.174,7.995-0.256c-3.27,4.631-7.504,10.637-9.585,13.578   c0,0-1.114-0.032-1.153-0.035c-0.424-0.029-0.77,0.288-0.795,0.702c-0.026,0.413,0.288,0.77,0.701,0.796   c0.358,0.022,4.106,0.348,8.496,0.609c0.48,0.044,0.966,0.088,1.458,0.134c3.903,0.36,6.592,2.735,7.685,5.296   c1.319,3.09,0.259,5.276-2.665,5.292c-5.123,0.027-40.904,0.607-46.104,0.61c-0.163,0-0.524-0.069-0.546-0.075   c-2.282-0.576-4.054-4.708-4.054-9.729c0-5.027,1.776-9.165,4.064-9.731c0.017-0.004,0.032-0.012,0.05-0.016   c0.16-0.036,0.321-0.056,0.485-0.056c0.167,0,2.942,0,4.022,0.002c-0.531-0.641-1.123-1.146-1.766-1.501   c-0.699-0.387-1.454-0.602-2.257-0.602c-3.969,0-6.85,5.038-6.85,11.979s2.881,11.979,6.85,11.979c0.911,0,1.76-0.276,2.534-0.769   c0.678-0.007,1.46-0.016,2.31-0.026c-1.34,1.461-2.993,2.295-4.844,2.295c-2.424,0-4.514-1.424-5.997-3.825h-2.499   c-1.331-2.624-2.104-5.957-2.104-9.729c0-3.442,0.638-6.526,1.761-9.034l0.002-0.002h2.537c1.494-2.723,3.702-4.367,6.3-4.367   c1.539,0,2.942,0.578,4.143,1.611c0.377,0.324,0.729,0.701,1.063,1.112c0.865-1.315,1.731-2.632,2.541-3.862   c-0.361-0.364-0.737-0.703-1.13-1.012c-1.9-1.499-4.142-2.35-6.617-2.35c-7.446,0-12.85,7.562-12.85,17.979   s5.403,17.979,12.85,17.979c4.366,0,8.02-2.613,10.304-6.865c0.56-0.007,1.129-0.015,1.713-0.022   c-2.496,5.174-6.809,8.388-12.017,8.388c-5.648,0-10.238-3.787-12.605-9.75h-2.367c-1.04-2.902-1.627-6.204-1.627-9.804   c0-3.283,0.484-6.323,1.356-9.036h2.409c2.289-6.316,6.994-10.367,12.834-10.367c2.789,0,5.312,0.939,7.446,2.59   c0.395,0.306,0.776,0.636,1.144,0.99c1.052-1.599,1.946-2.959,2.528-3.844c-0.379-0.335-0.768-0.655-1.168-0.953   c-2.837-2.104-6.219-3.283-9.95-3.283c-10.923,0-18.85,10.084-18.85,23.979s7.927,23.979,18.85,23.979   c7.739,0,13.97-5.065,16.947-12.957c0.534-0.008,1.069-0.016,1.61-0.023c-3.1,8.793-9.969,14.48-18.558,14.48   c-11.792,0-20.35-10.715-20.35-25.479S16.625,28.701,28.417,28.701z"/><path d="M71.356,35.309c1.319-1.05,1.957-2.489,1.957-4.31c0-1.842-0.728-3.318-2.108-4.37c0,0,4.336,0.091,5.605,0.123   c2.346,0.06,4.247,1.901,4.247,4.247s-1.901,4.201-4.247,4.246C75.398,35.273,71.356,35.309,71.356,35.309z M50.306,26.071   c0.208-0.025,0.422-0.04,0.633-0.036c4.152,0.063,14.955,0.657,16.627,0.717c2.346,0.085,4.248,1.901,4.248,4.247   s-1.902,4.201-4.248,4.246c-1.254,0.024-3.04,0.102-4.932,0.193c-0.11-2.592-2.229-4.696-4.938-4.824l-2.123-0.106   c-3.011-0.152-7.325-0.369-10.265-0.457c0.783-1.123,1.263-1.811,1.263-1.811C47.448,26.927,48.845,26.189,50.306,26.071z    M87.227,30.548c-1.676,0.089-3.244,0.175-4.679,0.255c-0.104-3.016-2.56-5.438-5.683-5.55c-0.48-0.017-1.713-0.078-3.324-0.158   c-2.301-0.114-5.258-0.261-7.941-0.376c0.814-1.199,1.313-1.933,1.313-1.933c0.972-1.455,2.519-2.272,4.137-2.403   c0.23-0.027,0.469-0.044,0.701-0.04c4.602,0.07,9.543,0.445,15.476,0.794c2.595,0.152,4.706,2.108,4.706,4.708   C91.933,28.442,89.822,30.41,87.227,30.548z"/><path d="M76.865,25.253c-0.48-0.017-1.713-0.078-3.324-0.158c-2.301-0.114-5.258-0.261-7.941-0.376   c0.814-1.199,1.313-1.933,1.313-1.933c0.972-1.455,2.519-2.272,4.137-2.403c0.23-0.027,0.469-0.044,0.701-0.04   c4.602,0.07,9.543,0.445,15.476,0.794c2.595,0.152,4.706,2.108,4.706,4.708c0,2.598-2.11,4.565-4.706,4.703   c-1.676,0.089-3.244,0.175-4.679,0.255C82.443,27.787,79.988,25.365,76.865,25.253z"/><path d="M50.938,26.035c4.152,0.063,14.955,0.657,16.627,0.717c2.346,0.085,4.248,1.901,4.248,4.247s-1.902,4.201-4.248,4.246   c-1.254,0.024-3.04,0.102-4.932,0.193c-0.11-2.592-2.229-4.696-4.938-4.824l-2.123-0.106c-3.011-0.152-7.325-0.369-10.265-0.457   c0.783-1.123,1.263-1.811,1.263-1.811c0.877-1.313,2.273-2.051,3.734-2.169C50.514,26.046,50.728,26.031,50.938,26.035z"/></g></svg>