<svg xmlns="http://www.w3.org/2000/svg" data-name="Layer 1" viewBox="0 0 128 128" x="0px" y="0px"><path d="M66,17.33093V13.01422a2.00005,2.00005,0,1,0-4,0v4.31671a2.00005,2.00005,0,1,0,4,0Z"/><path d="M50.18555,17.23059a1.99119,1.99119,0,0,0-2.82422.15344,2.02361,2.02361,0,0,0,.15234,2.84436l3.15723,2.85516a1.98991,1.98991,0,0,0,2.82422-.15344,2.02361,2.02361,0,0,0-.15234-2.84436Z"/><path d="M78.03613,17.23059l-3.1582,2.85419a2.02351,2.02351,0,0,0-.15234,2.84436,1.98983,1.98983,0,0,0,2.82422.15338l3.1582-2.85413a2.02351,2.02351,0,0,0,.15234-2.84436A1.98936,1.98936,0,0,0,78.03613,17.23059Z"/><path d="M57.67383,13.65253a1.99367,1.99367,0,0,0-2.65332-.98645,2.02068,2.02068,0,0,0-.97949,2.67224l1.707,3.73145a1.99215,1.99215,0,0,0,2.65332.98651,2.02068,2.02068,0,0,0,.97949-2.67224Z"/><path d="M73.25684,12.68768a1.99235,1.99235,0,0,0-2.65625.97766l-1.71875,3.72656a2.01909,2.01909,0,0,0,.9707,2.67517,1.977,1.977,0,0,0,.8418.18787,1.99823,1.99823,0,0,0,1.81445-1.16547l1.71875-3.72656A2.01918,2.01918,0,0,0,73.25684,12.68768Z"/><path d="M83.293,23.0658l-4.11621,1.56677a2.01674,2.01674,0,0,0,.707,3.89966,1.98429,1.98429,0,0,0,.707-.1308L84.707,26.83466a2.01891,2.01891,0,0,0,1.16406-2.5965A1.99732,1.99732,0,0,0,83.293,23.0658Z"/><path d="M42.1123,24.77521a2.0165,2.0165,0,0,0,1.22754,2.566L47.501,28.80664a1.98929,1.98929,0,0,0,2.54785-1.23627,2.01656,2.01656,0,0,0-1.22754-2.566l-4.16113-1.46545A1.99715,1.99715,0,0,0,42.1123,24.77521Z"/><path d="M50.88867,33.15674a2.00005,2.00005,0,1,0,4,0c0-4.63434,4.08691-8.40417,9.11133-8.40417s9.11133,3.76984,9.11133,8.40417a2.00005,2.00005,0,1,0,4,0c0-6.8551-5.88184-12.43268-13.11133-12.43268S50.88867,26.30164,50.88867,33.15674Z"/><path d="M26.95313,27.87915a2.023,2.023,0,0,0,.80859-2.73022,1.99444,1.99444,0,0,0-2.71094-.81433,5.462,5.462,0,0,0-2.86523,3.88684,7.4956,7.4956,0,0,0-3.88086,2.863,2.02245,2.02245,0,0,0,.63965,2.77454,1.99037,1.99037,0,0,0,2.75488-.64423,4.82836,4.82836,0,0,1,2.73535-1.45758,2.00991,2.00991,0,0,0,1.64648-2.10278A1.61767,1.61767,0,0,1,26.95313,27.87915Z"/><path d="M103.56738,31.7572a4.83878,4.83878,0,0,1,2.73535,1.45758,1.99037,1.99037,0,0,0,2.75488.64423,2.02245,2.02245,0,0,0,.63965-2.77454,7.4956,7.4956,0,0,0-3.88086-2.863,5.462,5.462,0,0,0-2.86523-3.88684,1.99592,1.99592,0,0,0-2.71094.81433,2.023,2.023,0,0,0,.80859,2.73022,1.61767,1.61767,0,0,1,.87207,1.77527A2.00991,2.00991,0,0,0,103.56738,31.7572Z"/><path d="M10.56836,52.29218a1.99217,1.99217,0,0,0,2.8291.03442l6.53711-6.42633,2.418,2.31421a1.988,1.988,0,0,0,2.80762-.05115L36.9707,36.00208l6.02356,5.906,2.78107-2.89563L38.332,31.71393a1.98854,1.98854,0,0,0-2.8252.03442l-11.82715,12.179-2.38574-2.28375a1.99036,1.99036,0,0,0-2.77539.0177l-7.916,7.78162A2.026,2.026,0,0,0,10.56836,52.29218Z"/><path d="M90.4707,31.71393,82.614,39.41785l2.491,2.59357a5.97187,5.97187,0,0,1,.73291-.1322L91.832,36.00208l11.81055,12.16125a1.988,1.988,0,0,0,2.80762.05115l2.36229-2.26111,5.73536,6.10077a1.98948,1.98948,0,0,0,2.82715.0777,2.02412,2.02412,0,0,0,.07715-2.84729l-7.11328-7.56622a1.99072,1.99072,0,0,0-1.39941-.62848,1.92071,1.92071,0,0,0-1.43066.55371L105.123,43.92731,93.2959,31.74835A1.98943,1.98943,0,0,0,90.4707,31.71393Z"/><path d="M85.27051,46.329l-.877.73669-6.48145-6.749a1.99174,1.99174,0,0,0-2.76074-.11011L64,50.10992,52.84863,40.20667a1.99181,1.99181,0,0,0-2.76074.11011l-6.48145,6.749-.877-.73669a1.98982,1.98982,0,0,0-2.72852.15839l-4.44922,4.70416a2.02512,2.02512,0,0,0,.06836,2.84827,1.99076,1.99076,0,0,0,2.82813-.06885l3.1582-3.34.86621.72681a1.99063,1.99063,0,0,0,2.71777-.14752l6.44434-6.70959s11.03058,9.79559,11.04205,9.80573a2.09593,2.09593,0,0,0,2.64642,0l11.042-9.80573,6.44434,6.70959a1.99063,1.99063,0,0,0,2.71777.14752l.86621-.72681,3.1582,3.34a1.98989,1.98989,0,0,0,2.82813.06885,2.02512,2.02512,0,0,0,.06836-2.84827L87.999,46.48743A1.98982,1.98982,0,0,0,85.27051,46.329Z"/><path d="M119.86481,81.95972A2.0117,2.0117,0,0,0,120,81.247V72.00336l.57813.58868a1.98939,1.98939,0,0,0,2.82813.01575,2.02466,2.02466,0,0,0,.01563-2.84833L120,66.2749V63.94635l.57813.58868a1.98939,1.98939,0,0,0,2.82813.01575,2.02466,2.02466,0,0,0,.01563-2.84833l-3.95605-4.0285a1.99461,1.99461,0,0,0-1.41113-.598,2.06573,2.06573,0,0,0-1.417.58228l-4.04395,4.0285a2.02459,2.02459,0,0,0-.01562,2.84827,1.98945,1.98945,0,0,0,2.82813.01575L116,63.95923v2.39124l-3.40625,3.39331a2.02459,2.02459,0,0,0-.01562,2.84827,1.98945,1.98945,0,0,0,2.82813.01575L116,72.01624v7.7915q-.711-.37143-1.43457-.74023c-1.2002-.61072-2.46582-1.36511-3.80566-2.1637A58.80563,58.80563,0,0,0,103,72.82367V67.97485l.57813.58868a1.99025,1.99025,0,0,0,2.82813.01575,2.02466,2.02466,0,0,0,.01563-2.84833L103,62.2464V59.91785l.57813.58868a1.98938,1.98938,0,0,0,2.82813.01575,2.02466,2.02466,0,0,0,.01563-2.84833l-3.95605-4.0285a1.99461,1.99461,0,0,0-1.41113-.598h-.01074a1.99294,1.99294,0,0,0-1.40625.58228l-4.04395,4.0285a2.02459,2.02459,0,0,0-.01562,2.84827,1.98945,1.98945,0,0,0,2.82813.01575L99,59.93073V62.322l-3.40625,3.39331a2.02459,2.02459,0,0,0-.01562,2.84827,1.98945,1.98945,0,0,0,2.82813.01575L99,67.98773v3.50214c-.12439-.03149-.24261-.0708-.36816-.10071a41.00727,41.00727,0,0,0-10.03613-.66974,64.37607,64.37607,0,0,1-7.416-.18982A54.21058,54.21058,0,0,1,74.53418,69.254,45.87736,45.87736,0,0,0,64,67.65082,45.9646,45.9646,0,0,0,53.46094,69.254a54.22016,54.22016,0,0,1-6.64551,1.27661,64.33654,64.33654,0,0,1-7.41309.18982,41.07667,41.07667,0,0,0-10.0332.66876c-.81787.19482-1.601.43414-2.36914.69073v-4.105l.57813.58868a1.99026,1.99026,0,0,0,2.82813.01575,2.02466,2.02466,0,0,0,.01563-2.84833L27,62.2464V59.91785l.57813.58868a1.98939,1.98939,0,0,0,2.82813.01575,2.02466,2.02466,0,0,0,.01563-2.84833l-3.95605-4.0285a1.99461,1.99461,0,0,0-1.41113-.598,2.05694,2.05694,0,0,0-1.417.58228l-4.04395,4.0285a2.02459,2.02459,0,0,0-.01562,2.84827,1.98945,1.98945,0,0,0,2.82813.01575L23,59.93073V62.322l-3.40625,3.39331a2.02459,2.02459,0,0,0-.01562,2.84827,1.98945,1.98945,0,0,0,2.82813.01575L23,67.98773v5.725c-2.0788,1.0033-3.98016,2.13123-5.75586,3.18909-1.33984.79865-2.60547,1.553-3.80566,2.16376-1.17621.599-2.32812,1.20264-3.43848,1.81781v-8.88l.57813.58868a1.98938,1.98938,0,0,0,2.82813.01575,2.02466,2.02466,0,0,0,.01563-2.84833L10,66.2749V63.94635l.57813.58868a1.98938,1.98938,0,0,0,2.82813.01575,2.02466,2.02466,0,0,0,.01563-2.84833L9.46582,57.674a1.98931,1.98931,0,0,0-2.82812-.01569l-4.04395,4.0285A2.02459,2.02459,0,0,0,2.57813,64.535a1.98945,1.98945,0,0,0,2.82813.01575L6,63.95923v2.39124L2.59375,69.74377A2.02459,2.02459,0,0,0,2.57813,72.592a1.98945,1.98945,0,0,0,2.82813.01575L6,72.01624V83.26129c0,.02435.00629.04706.00714.07129C2.45325,85.8147,0,88.6463,0,92.32538c0,5.92279,6.35449,9.65033,13.43457,13.25787,1.2002.61078,2.46582,1.36517,3.80566,2.16376,3.44141,2.05066,7.34082,4.37567,12.12793,5.51459a40.96887,40.96887,0,0,0,10.03613.6698,64.36233,64.36233,0,0,1,7.416.18982,54.21058,54.21058,0,0,1,6.64551,1.27563A45.88069,45.88069,0,0,0,64,117a45.96794,45.96794,0,0,0,10.53906-1.60315,54.20863,54.20863,0,0,1,6.64551-1.27661,64.30906,64.30906,0,0,1,7.41309-.18982,40.87462,40.87462,0,0,0,10.0332-.66882c4.78613-1.13989,8.68457-3.463,12.125-5.51263,1.33984-.79858,2.60547-1.553,3.80566-2.1637C121.64355,101.97864,128,98.25012,128,92.32538,128,87.951,124.52966,84.77527,119.86481,81.95972Zm-7.108,20.03076c-1.31836.67078-2.63867,1.45758-4.03711,2.29157-3.19531,1.90314-6.81641,4.061-11.00879,5.05927a38.23129,38.23129,0,0,1-9.06152.56061,67.44876,67.44876,0,0,0-7.873.21143,57.79447,57.79447,0,0,0-7.14258,1.35925A42.9546,42.9546,0,0,1,64,112.9715a42.9074,42.9074,0,0,1-9.62891-1.49792,57.82878,57.82878,0,0,0-7.14258-1.35919,51.8298,51.8298,0,0,0-5.34082-.23309c-.85352,0-1.69922.0108-2.53516.02161a38.19259,38.19259,0,0,1-9.06445-.56158c-4.19434-.99829-7.81543-3.1571-11.01074-5.06122-1.39844-.833-2.71973-1.62085-4.03809-2.29156C9.80176,99.21692,4,95.95752,4,92.32538c0-3.63409,5.80371-6.89447,11.24316-9.665,1.31836-.67078,2.63867-1.45758,4.03711-2.29163,3.19531-1.90308,6.81641-4.06091,11.00879-5.0592a38.11535,38.11535,0,0,1,9.06152-.56061,67.01,67.01,0,0,0,7.873-.21149,57.79427,57.79427,0,0,0,7.14258-1.35919A42.95112,42.95112,0,0,1,64,71.67932a42.9074,42.9074,0,0,1,9.62891,1.49792,57.82878,57.82878,0,0,0,7.14258,1.35919,67.31276,67.31276,0,0,0,7.876.21149,38.1043,38.1043,0,0,1,9.06445.56158c4.19434.99829,7.81543,3.1571,11.01074,5.06122,1.39844.833,2.71973,1.62079,4.03809,2.29156C118.19824,85.43384,124,88.69324,124,92.32538,124,95.95953,118.19629,99.21991,112.75684,101.99048Z"/><path d="M47.4248,81.79285a2.00074,2.00074,0,1,0-3.84961-1.09167c-.11426.40619-.97363.537-1.14746.54681a2.01474,2.01474,0,0,0,.07129,4.02753c.01758,0,.03418,0,.05176-.001A5.10441,5.10441,0,0,0,47.4248,81.79285Z"/><path d="M73.042,100.45813a1.99866,1.99866,0,0,0-2.4668,1.3927c-.11426.40619-.97363.537-1.14746.54681a2.01474,2.01474,0,0,0,.07129,4.02753c.01758,0,.03418,0,.05176-.001a5.1045,5.1045,0,0,0,4.874-3.48169A2.01511,2.01511,0,0,0,73.042,100.45813Z"/><path d="M54.05762,95.01337c-1.94141,1.30219-4.957-.10425-5.01074-.12982a1.99249,1.99249,0,0,0-2.6748.90582,2.01982,2.01982,0,0,0,.89551,2.70172,11.63713,11.63713,0,0,0,4.76563,1.10254,7.49236,7.49236,0,0,0,4.24316-1.22839,2.02344,2.02344,0,0,0,.55469-2.79321A1.99005,1.99005,0,0,0,54.05762,95.01337Z"/><path d="M34.05762,97.02759c-1.94238,1.30219-4.957-.10425-5.01074-.12982a1.99221,1.99221,0,0,0-2.6748.90582,2.0199,2.0199,0,0,0,.89551,2.70178,11.63867,11.63867,0,0,0,4.76562,1.10248,7.49236,7.49236,0,0,0,4.24316-1.22839,2.02342,2.02342,0,0,0,.55469-2.79321A1.99016,1.99016,0,0,0,34.05762,97.02759Z"/><path d="M71.10449,88.04022a1.9901,1.9901,0,0,0,2.80664-.35211,2.02393,2.02393,0,0,0-.34961-2.82666,6.67845,6.67845,0,0,0-7.83789-.7583,2.04268,2.04268,0,0,0-.57422,2.806,1.97,1.97,0,0,0,2.75391.57147C68.1377,87.3399,69.39941,86.70459,71.10449,88.04022Z"/><path d="M28.91113,87.68811a2.02393,2.02393,0,0,0-.34961-2.82666,6.67845,6.67845,0,0,0-7.83789-.7583,2.04268,2.04268,0,0,0-.57422,2.806,1.97,1.97,0,0,0,2.75391.57147c.2334-.14069,1.49609-.776,3.20117.55963a1.9901,1.9901,0,0,0,2.80664-.35211Z"/><path d="M106.56152,84.86145a6.67849,6.67849,0,0,0-7.83789-.7583,2.04268,2.04268,0,0,0-.57422,2.806,1.97,1.97,0,0,0,2.75391.57147c.23438-.14069,1.49609-.776,3.20117.55963a1.9901,1.9901,0,0,0,2.80664-.35211A2.02393,2.02393,0,0,0,106.56152,84.86145Z"/><path d="M89.25293,93.25092c-1.05273,1.06024-3.7168-.01086-4.377-.35706a1.992,1.992,0,0,0-2.69922.836,2.02061,2.02061,0,0,0,.82715,2.72339,10.86253,10.86253,0,0,0,4.85938,1.27264,5.74874,5.74874,0,0,0,4.21777-1.62671,2.02366,2.02366,0,0,0,0-2.84827A1.9892,1.9892,0,0,0,89.25293,93.25092Z"/></svg>